<svg width="96" height="96" viewBox="0 0 96 96" fill="none" xmlns="http://www.w3.org/2000/svg">
<path d="M85.8897 0H10.1103C4.52652 0 0 4.51092 0 10.0754V85.9246C0 91.4891 4.52652 96 10.1103 96H85.8897C91.4735 96 96 91.4891 96 85.9246V10.0754C96 4.51092 91.4735 0 85.8897 0Z" fill="#002D5D"/>
<path d="M53.0546 60.1669L51.3094 54.8835L49.3177 55.5356L49.0996 54.8173L53.8418 53.2578L54.0789 53.9667L52.0872 54.6188L53.8323 59.8928L53.0546 60.1669Z" fill="white"/>
<path d="M58.3187 56.9131L59.1154 56.7524C59.1529 57.1944 59.0428 57.6363 58.8024 58.0095C58.5234 58.3818 58.1307 58.6538 57.6833 58.7845C57.4067 58.8906 57.1107 58.937 56.8148 58.9207C56.5189 58.9044 56.2298 58.8258 55.9666 58.69C55.4256 58.364 55.0315 57.8427 54.8664 57.2345C54.6226 56.6278 54.6226 55.9508 54.8664 55.3441C54.9859 55.0843 55.1606 54.8534 55.3784 54.6673C55.5962 54.4813 55.8519 54.3446 56.1278 54.2667C56.3904 54.166 56.6721 54.1248 56.9526 54.1461C57.2331 54.1673 57.5054 54.2505 57.7497 54.3895C58.2988 54.7219 58.6967 55.254 58.8593 55.8734L58.9162 56.0719L55.6726 57.1305C55.8022 57.5296 56.076 57.8664 56.4408 58.0756C56.5982 58.1593 56.7711 58.21 56.9489 58.2246C57.1267 58.2392 57.3056 58.2175 57.4746 58.1607C57.7243 58.0806 57.9429 57.9254 58.1006 57.7165C58.2487 57.4749 58.3244 57.1962 58.3187 56.9131ZM55.4734 56.5161L57.9014 55.7222C57.7992 55.4256 57.607 55.1679 57.3513 54.985C57.2026 54.8854 57.0335 54.8202 56.8563 54.7941C56.6791 54.7679 56.4983 54.7815 56.327 54.8337C56.1676 54.882 56.0197 54.9623 55.8925 55.0695C55.7653 55.1768 55.6614 55.3088 55.5872 55.4576C55.4213 55.7858 55.3906 56.1657 55.5019 56.5161H55.4734Z" fill="white"/>
<path d="M62.9461 55.1709L63.7048 55.0291C63.7974 55.4973 63.7201 55.983 63.4867 56.3996C63.2436 56.7903 62.8659 57.0792 62.4244 57.2125C62.1607 57.3117 61.8788 57.3538 61.5975 57.3358C61.3162 57.3179 61.042 57.2404 60.7931 57.1085C60.2678 56.7607 59.8949 56.2268 59.7499 55.6151C59.5971 55.1982 59.5356 54.7534 59.5697 54.3108C59.5973 53.928 59.7583 53.5669 60.0249 53.29C60.2825 53.0092 60.6095 52.8006 60.9733 52.6851C61.3872 52.5372 61.8398 52.5372 62.2537 52.6851C62.6645 52.8322 63.0036 53.1296 63.2022 53.5169L62.5193 53.8571C62.39 53.6199 62.187 53.4309 61.9407 53.3184C61.7154 53.229 61.4642 53.229 61.2389 53.3184C61.0672 53.3687 60.909 53.4568 60.776 53.5763C60.643 53.6957 60.5387 53.8434 60.4707 54.0084C60.3246 54.4612 60.3482 54.9515 60.5371 55.3883C60.6478 55.8465 60.9121 56.2532 61.2863 56.5414C61.4363 56.6345 61.6053 56.6929 61.7809 56.7126C61.9564 56.7322 62.1342 56.7125 62.3012 56.6548C62.5717 56.5739 62.7998 56.3907 62.9366 56.1444C63.061 55.8324 63.0644 55.4853 62.9461 55.1709Z" fill="white"/>
<path d="M64.9962 56.2481L63.0234 50.2653L63.7632 50.0195L64.4935 52.1745C64.5917 51.9324 64.7419 51.7147 64.9336 51.5367C65.1253 51.3587 65.3539 51.2247 65.6032 51.1443C65.9069 51.036 66.2333 51.0067 66.5516 51.0592C66.814 51.0967 67.0553 51.2236 67.2345 51.4184C67.4613 51.6942 67.6233 52.0172 67.7087 52.3635L68.6571 55.1045L67.9173 55.3502L67.0163 52.5998C66.9459 52.3031 66.7622 52.0454 66.5042 51.8815C66.3859 51.8246 66.2562 51.795 66.1248 51.795C65.9934 51.795 65.8637 51.8246 65.7454 51.8815C65.5267 51.9471 65.3322 52.0753 65.1859 52.2501C65.0328 52.4123 64.9421 52.6232 64.9298 52.8456C64.9221 53.1317 64.9671 53.4168 65.0626 53.6868L65.8498 56.0591L64.9962 56.2481Z" fill="white"/>
<path d="M69.8345 54.6785L68.4023 50.3402L69.0662 50.1228L69.2749 50.7372C69.345 50.4581 69.4882 50.2026 69.6898 49.9967C69.8914 49.7908 70.1443 49.6419 70.4225 49.5652C70.6696 49.4827 70.9309 49.4505 71.1907 49.4707C71.4113 49.4832 71.6243 49.5551 71.8072 49.6786C71.974 49.803 72.1129 49.9608 72.215 50.1417C72.326 50.3701 72.418 50.6072 72.4901 50.8506L73.3721 53.516L72.6323 53.7522L71.7598 51.1152C71.695 50.8858 71.5924 50.6686 71.4563 50.4725C71.3495 50.339 71.1979 50.2484 71.0295 50.2173C70.8464 50.1666 70.653 50.1666 70.4699 50.2173C70.1698 50.3107 69.9158 50.5131 69.7586 50.7844C69.6732 50.9797 69.6292 51.1905 69.6292 51.4035C69.6292 51.6166 69.6732 51.8273 69.7586 52.0226L70.5458 54.395L69.8345 54.6785Z" fill="white"/>
<path d="M73.6818 51.049C73.5449 50.7302 73.4807 50.3851 73.4939 50.0386C73.507 49.6921 73.5971 49.3529 73.7576 49.0453C74.0308 48.5912 74.4634 48.2543 74.9716 48.1001C75.2409 48.0023 75.5277 47.9618 75.8136 47.9813C76.0995 48.0009 76.3781 48.08 76.6314 48.2135C77.1812 48.5118 77.5903 49.0146 77.7695 49.6124C77.9422 50.0573 78.0072 50.5365 77.9592 51.0112C77.8891 51.3668 77.7179 51.6949 77.466 51.9564C77.2099 52.241 76.8826 52.453 76.5176 52.5707C76.2474 52.6702 75.9594 52.7123 75.6719 52.6944C75.3845 52.6765 75.104 52.599 74.8483 52.4667C74.2873 52.1658 73.868 51.6563 73.6818 51.049ZM74.431 50.7938C74.5481 51.2514 74.8235 51.6531 75.2087 51.928C75.3657 52.022 75.5413 52.0811 75.7233 52.1012C75.9053 52.1214 76.0896 52.102 76.2634 52.0446C76.4373 51.9871 76.5966 51.8929 76.7305 51.7684C76.8644 51.6439 76.9697 51.492 77.0392 51.3231C77.2038 50.8745 77.2038 50.3823 77.0392 49.9337C76.9233 49.4857 76.6466 49.0956 76.2615 48.8373C76.1074 48.7415 75.934 48.6809 75.7537 48.6596C75.5733 48.6384 75.3905 48.6571 75.2182 48.7144C75.0423 48.7696 74.8806 48.8624 74.7446 48.9865C74.6086 49.1107 74.5016 49.263 74.431 49.4328C74.276 49.8603 74.276 50.3284 74.431 50.756V50.7938Z" fill="white"/>
<path d="M79.4884 51.4942L77.5156 45.5114L78.2459 45.2656L80.2281 51.2579L79.4884 51.4942Z" fill="white"/>
<path d="M80.5493 48.7404C80.4136 48.4217 80.3492 48.0773 80.3607 47.7312C80.3721 47.3852 80.4592 47.0458 80.6157 46.7367C80.8875 46.2813 81.3206 45.9441 81.8297 45.7915C82.0983 45.6922 82.3848 45.6502 82.6707 45.6681C82.9565 45.686 83.2355 45.7635 83.4895 45.8955C83.7591 46.0481 83.9954 46.2531 84.1844 46.4982C84.3733 46.7433 84.5111 47.0236 84.5897 47.3226C84.762 47.7677 84.827 48.2468 84.7793 48.7215C84.7093 49.0771 84.5381 49.4052 84.2862 49.6666C84.0292 49.9482 83.7019 50.1569 83.3377 50.2715C83.0682 50.3725 82.7805 50.4162 82.4931 50.3999C82.2056 50.3837 81.9248 50.3077 81.6685 50.177C81.1208 49.863 80.7189 49.347 80.5493 48.7404ZM81.3081 48.4946C81.4152 48.9516 81.689 49.3525 82.0763 49.6194C82.2338 49.7122 82.4093 49.7705 82.5912 49.7905C82.773 49.8105 82.9571 49.7918 83.1311 49.7354C83.3051 49.6791 83.4652 49.5866 83.6005 49.4639C83.7359 49.3412 83.8435 49.1912 83.9163 49.0239C84.0617 48.5653 84.0416 48.0705 83.8594 47.6251C83.742 47.1804 83.4697 46.7917 83.0911 46.5287C82.9346 46.4343 82.7593 46.3752 82.5774 46.3556C82.3955 46.336 82.2115 46.3564 82.0384 46.4153C81.863 46.4692 81.702 46.5618 81.5674 46.6861C81.4327 46.8105 81.3279 46.9634 81.2607 47.1336C81.1062 47.5774 81.1231 48.0626 81.3081 48.4946Z" fill="white"/>
<path d="M86.3565 49.6416L87.1058 49.5093C87.1436 49.602 87.2001 49.6859 87.2719 49.7559C87.3437 49.8258 87.4292 49.8802 87.5231 49.9157C87.793 49.9878 88.079 49.9712 88.3387 49.8685C88.6221 49.794 88.8745 49.6318 89.0595 49.4053C89.2042 49.2057 89.2716 48.9606 89.2492 48.7154C89.1969 48.3923 89.1111 48.0756 88.9931 47.7702C88.9038 47.9938 88.7655 48.1947 88.5883 48.3582C88.411 48.5218 88.1994 48.6438 87.9688 48.7154C87.7064 48.8164 87.4232 48.852 87.1439 48.819C86.8645 48.7861 86.5975 48.6856 86.366 48.5263C85.9058 48.1792 85.5726 47.6911 85.4176 47.137C85.2799 46.7461 85.2282 46.3303 85.2658 45.9177C85.2891 45.5477 85.421 45.1928 85.6452 44.8969C85.8927 44.6004 86.2227 44.3833 86.5936 44.2731C86.8397 44.1923 87.1012 44.169 87.3577 44.2051C87.6143 44.2411 87.8591 44.3356 88.0732 44.4811L87.9024 43.9612L88.5758 43.7344L89.8183 47.515C90.0138 47.9912 90.1044 48.5037 90.0838 49.0178C90.0351 49.3494 89.8824 49.657 89.6476 49.8968C89.3652 50.1844 89.012 50.393 88.6233 50.5017C88.1886 50.6768 87.7072 50.7001 87.2575 50.5679C87.0359 50.5119 86.8343 50.3956 86.6752 50.2321C86.5161 50.0685 86.4058 49.8641 86.3565 49.6416ZM86.1099 46.8061C86.2196 47.2596 86.4846 47.6607 86.8592 47.9403C86.9996 48.0266 87.1571 48.0814 87.3209 48.101C87.4846 48.1206 87.6507 48.1045 87.8076 48.0538C87.9703 48.0023 88.1194 47.9154 88.2441 47.7993C88.3687 47.6833 88.4659 47.5409 88.5284 47.3827C88.6726 46.9463 88.6523 46.4726 88.4715 46.05C88.3584 45.6084 88.0889 45.2224 87.7128 44.9631C87.5728 44.8758 87.4157 44.8197 87.252 44.7985C87.0883 44.7773 86.922 44.7915 86.7643 44.8402C86.6042 44.8922 86.458 44.9796 86.3364 45.0958C86.2149 45.212 86.1213 45.354 86.0625 45.5113C85.9177 45.9436 85.9346 46.4135 86.1099 46.8345V46.8061Z" fill="white"/>
<path d="M91.7235 49.33L91.42 48.6684C91.5715 48.6657 91.7218 48.6402 91.8657 48.5928C92.0028 48.5579 92.1275 48.4859 92.2261 48.3849C92.3098 48.3015 92.3688 48.1969 92.3968 48.0824C92.4144 47.8748 92.4144 47.6662 92.3968 47.4586C92.3968 47.4113 92.3968 47.3452 92.3968 47.2601L89.3145 43.4795L90.1017 43.2243L91.8847 45.3698C92.1217 45.6715 92.3402 45.9871 92.5391 46.315C92.5203 45.9529 92.5203 45.5901 92.5391 45.228L92.634 42.3925L93.3737 42.1562L93.1746 47.1089C93.1586 47.4763 93.1206 47.8424 93.0608 48.2053C93.023 48.4502 92.9288 48.6831 92.7857 48.8858C92.6431 49.0603 92.4516 49.1887 92.2356 49.2544C92.0711 49.311 91.8974 49.3367 91.7235 49.33Z" fill="white"/>
<path d="M2.99805 47.1003L6.79176 45.8338C7.78781 45.4891 8.80874 45.2206 9.84571 45.0304C10.7549 44.883 11.6859 44.9471 12.5661 45.2176C13.4464 45.4881 14.2519 45.9578 14.9198 46.5899C15.5554 47.1952 16.1158 47.8742 16.589 48.6126C17.0293 49.3104 17.41 50.0439 17.7272 50.8053C18.0307 51.5237 18.2583 52.1191 18.41 52.5917C19.0227 54.3181 19.3868 56.1225 19.4912 57.9507C19.5874 59.493 19.2315 61.0298 18.4669 62.3741C18.128 62.8962 17.7087 63.3619 17.2245 63.754C16.5254 64.3081 15.7273 64.725 14.8724 64.9827L9.58963 66.7407L2.99805 47.1003ZM12.397 61.9488L13.573 61.5613L14.0283 61.3911C14.2451 61.3034 14.4468 61.1822 14.6258 61.032C14.8292 60.8549 15.0078 60.6515 15.1569 60.4271C15.3323 60.1434 15.4213 59.815 15.413 59.4819C15.4025 59.0792 15.3613 58.678 15.2897 58.2816C15.2043 57.7995 15.1 57.3364 14.9862 56.8449C14.8724 56.3534 14.7396 55.8997 14.5973 55.4461L14.2275 54.3969C13.8466 53.2103 13.3839 52.0513 12.8427 50.9282C12.5524 50.2721 12.155 49.6685 11.6667 49.1418C11.3655 48.8156 10.9528 48.6133 10.5096 48.5748C10.0934 48.5704 9.67949 48.6375 9.28613 48.7732L8.1006 49.1702L12.397 61.9488Z" fill="white"/>
<path d="M24.2218 54.4882C24.4886 55.5072 24.904 56.4817 25.4548 57.3804C25.6205 57.6667 25.8852 57.8831 26.1993 57.9892C26.5135 58.0953 26.8556 58.0839 27.1619 57.957C27.3987 57.8988 27.6119 57.7698 27.773 57.5873C27.934 57.4048 28.0352 57.1776 28.0629 56.9362C28.1023 56.3026 28.0544 55.6666 27.9207 55.0459L31.1074 54.2709C31.2728 54.8881 31.3651 55.5225 31.3824 56.1612C31.3968 56.8044 31.2939 57.4449 31.0789 58.0515C30.8597 58.6731 30.4994 59.2359 30.0262 59.6961C29.4546 60.2326 28.7666 60.6304 28.0155 60.8586C27.1763 61.1658 26.275 61.2663 25.3884 61.1516C24.6091 61.0282 23.8763 60.7022 23.2639 60.2065C22.5773 59.6341 22.0047 58.9384 21.5757 58.1555C21.0359 57.2148 20.5972 56.22 20.2669 55.1877C19.9593 54.2892 19.7308 53.3657 19.584 52.4278C19.4277 51.5208 19.4277 50.5938 19.584 49.6868C19.7056 48.8464 20.0311 48.0483 20.5324 47.3617C21.1409 46.6089 21.9697 46.0638 22.9035 45.8022C23.4674 45.6086 24.0619 45.5189 24.6581 45.5376C25.1466 45.5489 25.6301 45.6383 26.0902 45.8022C26.517 45.9568 26.917 46.1768 27.2757 46.4544C27.6203 46.7189 27.938 47.0164 28.2242 47.3428C28.5505 47.6937 28.8309 48.0843 29.0588 48.5054C29.306 48.9475 29.5307 49.4018 29.7322 49.8664C29.9313 50.3295 30.1115 50.8116 30.2633 51.218C30.415 51.6244 30.5573 52.0403 30.6616 52.3522L24.2218 54.4882ZM26.3083 51.1424C26.0673 50.3078 25.6717 49.5256 25.1418 48.8362C25.002 48.6494 24.8067 48.5114 24.5836 48.4418C24.3605 48.3722 24.121 48.3746 23.8993 48.4487C23.7421 48.4877 23.5957 48.5615 23.4709 48.6646C23.3461 48.7677 23.2462 48.8974 23.1785 49.0441C23.0503 49.3427 22.9857 49.6645 22.9888 49.9893C22.9918 50.3622 23.0395 50.7335 23.1311 51.0951L23.3872 52.1159L26.3083 51.1424Z" fill="white"/>
<path d="M34.7038 50.9825C34.9706 52.0015 35.386 52.976 35.9367 53.8747C36.1008 54.1603 36.3637 54.3764 36.6763 54.4826C36.9888 54.5887 37.3295 54.5776 37.6344 54.4513C37.8793 54.4004 38.1022 54.2747 38.2721 54.0918C38.4421 53.9089 38.5507 53.6777 38.5828 53.4305C38.6222 52.7969 38.5743 52.1609 38.4406 51.5402L41.6273 50.7652C41.7896 51.3828 41.8787 52.0172 41.8929 52.6555C41.9104 53.2981 41.8108 53.9386 41.5988 54.5458C41.376 55.1657 41.0162 55.7277 40.5461 56.1904C39.9745 56.7269 39.2865 57.1247 38.5354 57.3529C37.696 57.6594 36.7949 57.7599 35.9083 57.6459C35.129 57.5225 34.3962 57.1965 33.7838 56.7008C33.0966 56.1265 32.5212 55.4313 32.0861 54.6498C31.5541 53.7052 31.1157 52.7113 30.7773 51.682C30.4786 50.7809 30.2503 49.8582 30.0944 48.9221C29.9477 48.0143 29.9477 47.0889 30.0944 46.1811C30.2207 45.342 30.5458 44.545 31.0428 43.856C31.6475 43.1034 32.4733 42.5582 33.4044 42.2965C33.9477 42.1124 34.5188 42.0228 35.0926 42.0319C35.581 42.0442 36.0644 42.1335 36.5247 42.2965C36.9516 42.4511 37.3516 42.6711 37.7103 42.9487C38.0529 43.2155 38.3703 43.5129 38.6587 43.8371C38.9818 44.1906 39.2619 44.5808 39.4933 44.9997C39.7411 45.4401 39.9628 45.8945 40.1572 46.3607C40.3659 46.8238 40.5366 47.3059 40.6978 47.7123C40.8591 48.1187 40.9919 48.5346 41.0962 48.8465L34.7038 50.9825ZM36.7903 47.6367C36.545 46.8154 36.1495 46.0464 35.6237 45.3683C35.4825 45.1807 35.2854 45.0423 35.0607 44.9727C34.8359 44.9032 34.5949 44.906 34.3718 44.9808C34.2166 45.0217 34.0723 45.0963 33.9494 45.1993C33.8264 45.3022 33.7278 45.4309 33.6605 45.5762C33.5322 45.8748 33.4677 46.1966 33.4708 46.5214C33.4656 46.8942 33.5102 47.2661 33.6036 47.6272C33.6984 48.0053 33.7933 48.3455 33.8691 48.648L36.7903 47.6367Z" fill="white"/>
<path d="M39.2832 40.6981L42.5553 39.6017L43.0959 41.2179C43.1338 41.0541 43.1907 40.8462 43.2666 40.5941C43.3498 40.3204 43.4644 40.0572 43.608 39.8096C43.7663 39.5281 43.9715 39.2756 44.215 39.0629C44.4898 38.8192 44.813 38.6356 45.1635 38.5242C45.5389 38.379 45.9411 38.3148 46.3433 38.336C46.7455 38.3572 47.1386 38.4632 47.4966 38.6471C48.2061 39.0264 48.8268 39.5515 49.3176 40.1877C49.8398 40.8556 50.2763 41.5859 50.6169 42.3616C50.9773 43.1649 51.2429 43.836 51.4326 44.3842C51.5464 44.715 51.6697 45.1309 51.8214 45.6318C51.9681 46.1695 52.0821 46.7156 52.1629 47.2669C52.2678 47.8736 52.3375 48.4859 52.3715 49.1006C52.4106 49.7036 52.3819 50.3091 52.2862 50.9058C52.2545 51.0953 52.207 51.2819 52.1439 51.4635C52.0599 51.7116 51.9418 51.947 51.793 52.1629C51.6179 52.424 51.4036 52.6567 51.1575 52.8528C50.8512 53.092 50.5043 53.2745 50.1332 53.3916C49.6217 53.6063 49.0504 53.6331 48.5209 53.4672C48.1668 53.3226 47.8271 53.1454 47.5061 52.9379L50.266 61.2553L46.5766 62.4935L39.2832 40.6981ZM46.1973 49.0817C46.385 49.6605 46.6197 50.2232 46.8991 50.764C46.9431 50.8628 47.0064 50.9518 47.0854 51.0259C47.1643 51.0999 47.2573 51.1576 47.3588 51.1954C47.4604 51.2332 47.5685 51.2505 47.6768 51.2462C47.7852 51.242 47.8916 51.2162 47.9898 51.1705C48.1673 51.1001 48.3262 50.9902 48.4545 50.8491C48.6276 50.6121 48.6993 50.3164 48.6537 50.0268C48.6337 49.6765 48.583 49.3286 48.5019 48.9871C48.4071 48.5902 48.3123 48.1932 48.1984 47.8057C48.0846 47.4182 47.9803 47.059 47.8665 46.7282C47.7527 46.3974 47.6673 46.1233 47.6009 45.9343C47.4492 45.4617 47.3069 45.0553 47.1836 44.7339L46.8612 43.8549C46.7663 43.6092 46.6715 43.3918 46.5956 43.2122L46.3585 42.7113C46.2123 42.4001 46.006 42.1207 45.7515 41.889C45.6476 41.7986 45.5252 41.7318 45.3928 41.6934C45.2604 41.655 45.1212 41.6458 44.9848 41.6665C44.8485 41.6872 44.7183 41.7373 44.6034 41.8132C44.4884 41.8892 44.3915 41.9892 44.3194 42.1064C44.2212 42.2856 44.1752 42.4885 44.1866 42.6924C44.1902 42.9067 44.2221 43.1196 44.2814 43.3256C44.3383 43.5336 44.3952 43.7131 44.4427 43.8455L46.1973 49.0817Z" fill="white"/>
<path d="M48.8926 31.7896L54.2702 29.9938L55.8825 29.474C56.32 29.332 56.7715 29.237 57.2293 29.1905C57.625 29.1473 58.0251 29.1664 58.4148 29.2472C58.8275 29.3477 59.2236 29.5068 59.5909 29.7197C60.0995 30.0251 60.5544 30.4114 60.9376 30.8634C61.4683 31.5179 61.8589 32.2738 62.0852 33.0845C62.3302 33.749 62.471 34.4472 62.5025 35.1544C62.525 35.646 62.4509 36.1372 62.2844 36.6005C62.1548 36.9478 61.9619 37.2683 61.7153 37.5457C61.518 37.7736 61.3057 37.9883 61.0799 38.1884C61.2791 38.1884 61.5731 38.1884 61.9714 38.2451C62.4178 38.3063 62.847 38.4575 63.2328 38.6893C63.7447 39.0018 64.2 39.398 64.5796 39.8613C65.1112 40.5321 65.5074 41.2992 65.7462 42.1203C65.9212 42.6124 66.0389 43.123 66.0971 43.642C66.1446 44.066 66.1446 44.4939 66.0971 44.9179C66.0599 45.264 65.99 45.6057 65.8884 45.9387C65.8034 46.1983 65.6988 46.451 65.5754 46.6948C65.3837 47.084 65.1198 47.4336 64.7977 47.7251C64.4674 48.0158 64.1084 48.2723 63.726 48.4906C63.356 48.6982 62.9726 48.8814 62.5784 49.0388L61.5636 49.4074L55.4842 51.4112L48.8926 31.7896ZM55.4462 38.4058L56.9068 37.9048C57.3402 37.7899 57.7379 37.569 58.0639 37.2621C58.291 37.0405 58.4491 36.7583 58.5191 36.4493C58.576 36.1813 58.576 35.9044 58.5191 35.6364C58.4719 35.3931 58.4085 35.1531 58.3295 34.9181C58.1394 34.2737 57.7554 33.7029 57.2293 33.283C56.9479 33.109 56.6285 33.0053 56.2983 32.9806C55.968 32.9559 55.6367 33.011 55.3324 33.1412L53.8623 33.6327L55.4462 38.4058ZM58.2915 46.8555L59.8849 46.3168C60.2166 46.2084 60.5349 46.0625 60.8333 45.882C61.0916 45.721 61.3039 45.4964 61.4498 45.2298C61.5943 44.9356 61.6689 44.6122 61.6679 44.2847C61.6491 43.8071 61.5563 43.3352 61.3929 42.8858C61.3549 42.7787 61.2601 42.5424 61.1083 42.177C60.9358 41.7893 60.68 41.4441 60.3591 41.1656C60.2218 41.0311 60.0586 40.9257 59.8793 40.8558C59.7 40.7859 59.5083 40.7531 59.3158 40.7592C58.8442 40.8225 58.3803 40.9334 57.9311 41.09L56.5085 41.591L58.2915 46.8555Z" fill="white"/>
<path d="M62.0273 27.4094L65.8211 26.1523L72.4601 45.7644L68.6663 47.0309L62.0273 27.4094Z" fill="white"/>
<path d="M83.8798 41.9258L80.5128 43.0505L79.83 41.009C79.7731 41.3776 79.7067 41.7273 79.6308 42.0676C79.5442 42.4 79.41 42.7183 79.2325 43.0127C79.0361 43.3196 78.7892 43.5912 78.5022 43.8161C77.574 44.4865 76.4236 44.7773 75.287 44.629C74.787 44.4966 74.3339 44.2283 73.9782 43.8539C73.5749 43.4418 73.2531 42.9576 73.0297 42.4267C72.8116 41.8691 72.6029 41.2925 72.4038 40.7065L69.0938 30.7351L72.8875 29.478L76.2449 39.4684L76.4725 40.1016C76.5439 40.287 76.6501 40.457 76.7855 40.6026C76.9146 40.7338 77.0743 40.8312 77.2502 40.8861C77.4686 40.9596 77.7052 40.9596 77.9236 40.8861C78.4548 40.7065 78.7393 40.423 78.7867 40.026C78.7739 39.3451 78.6357 38.6723 78.3789 38.0412L75.2491 28.7219L79.0428 27.4648L83.8798 41.9258Z" fill="white"/>
<path d="M86.5537 33.6743C86.8247 34.6919 87.2398 35.6658 87.7866 36.5665C87.9539 36.8514 88.2186 37.0665 88.5322 37.1724C88.8459 37.2783 89.1873 37.2679 89.4938 37.1431C89.7406 37.0962 89.9658 36.9718 90.1365 36.7881C90.3071 36.6044 90.4143 36.3711 90.4423 36.1223C90.4901 35.4887 90.4422 34.8514 90.3 34.232L93.4962 33.4664C93.6547 34.0848 93.7438 34.7188 93.7618 35.3567C93.7757 35.9999 93.6729 36.6403 93.4583 37.2471C93.239 37.8687 92.8787 38.4315 92.4055 38.8916C91.8377 39.4283 91.1527 39.8263 90.4043 40.0542C89.5653 40.3627 88.663 40.4601 87.7772 40.3377C86.9935 40.2195 86.2564 39.893 85.6432 39.3926C84.9591 38.8177 84.3869 38.1225 83.955 37.3416C83.4249 36.3961 82.9867 35.4023 82.6462 34.3738C82.3475 33.4727 82.1192 32.55 81.9633 31.6139C81.8117 30.7065 81.8117 29.7803 81.9633 28.8729C82.0867 28.0301 82.412 27.2294 82.9117 26.5384C83.5249 25.7928 84.3523 25.2519 85.2828 24.9883C85.8242 24.7936 86.3955 24.6945 86.971 24.6953C87.4595 24.7067 87.943 24.796 88.4031 24.96C88.8312 25.1074 89.2319 25.3246 89.5887 25.6027C89.9337 25.8701 90.2514 26.1709 90.5371 26.5006C90.8609 26.8501 91.1411 27.2372 91.3717 27.6537C91.6055 28.1084 91.8145 28.5753 91.9977 29.0525C92.1968 29.5156 92.377 29.9977 92.5383 30.4041C92.6995 30.8105 92.8228 31.2169 92.9271 31.5383L86.5537 33.6743ZM88.6497 30.3285C88.3997 29.4928 88.0014 28.7085 87.4737 28.0128C87.3482 27.8634 87.1875 27.7472 87.0061 27.6746C86.8246 27.602 86.6279 27.5753 86.4335 27.5968C86.2392 27.6183 86.0532 27.6874 85.8921 27.7979C85.7311 27.9085 85.5999 28.057 85.5104 28.2302C85.3822 28.5288 85.3176 28.8506 85.3207 29.1754C85.3254 29.5358 85.3732 29.8943 85.463 30.2434C85.5578 30.6309 85.6432 30.9712 85.7286 31.2736L88.6497 30.3285Z" fill="white"/>
</svg>
